<?xml version="1.0" encoding="utf-8"?>
<!-- Generator: Adobe Illustrator 15.0.2, SVG Export Plug-In . SVG Version: 6.00 Build 0)  -->
<!DOCTYPE svg PUBLIC "-//W3C//DTD SVG 1.1//EN" "http://www.w3.org/Graphics/SVG/1.1/DTD/svg11.dtd">
<svg version="1.1" xmlns="http://www.w3.org/2000/svg" xmlns:xlink="http://www.w3.org/1999/xlink" x="0px" y="0px"
	 width="182.833px" height="79.792px" viewBox="0 0 182.833 79.792" enable-background="new 0 0 182.833 79.792"
	 xml:space="preserve">
<g id="Layer_2" display="none">
	<g display="inline">
		
			<text transform="matrix(0.872 0 0 1 19.0786 32.6816)" fill="#123787" font-family="'OpenSans-Bold'" font-size="26.4202" letter-spacing="1.147">HIGH TECH</text>
		<text transform="matrix(0.7567 0 0 1 1.4653 61.9297)" fill="#123787" font-family="'OpenSans-Bold'" font-size="26.0889">WATERPROOFING</text>
		<line fill="none" stroke="#123787" stroke-width="2" stroke-miterlimit="10" x1="0" y1="34.743" x2="174.667" y2="34.743"/>
		<text transform="matrix(1.1326 0 0 1.25 1.1743 76.5693)" fill="#123787" font-family="'OpenSans-Semibold'" font-size="8.8067">LIFETIME TRANSFERABLE GUARANTEE</text>
	</g>
</g>
<g id="Layer_3_copy" display="none">
	<path display="inline" fill="none" stroke="#FFFFFF" stroke-width="3" stroke-miterlimit="10" d="M3.581,61.819
		c9.292-2.543,9.651-11.94,9.651-11.94S27.32,69.243,66.335,72.904c27.094,2.541,39.053,0.353,50.94-3.661
		c21.058-7.112,43.376-16.418,46.239-19.364c0,0-1.722,8.02,14.174,10.211"/>
	<polygon display="inline" fill="#123787" points="95.249,1.706 178.428,77.934 4.711,77.952 78.437,1.706 	"/>
	<polygon display="inline" fill="#E2E3E4" points="96.279,0 177.29,65.789 4.474,65.789 77.995,0 	"/>
</g>
<g id="Layer_3_copy_2">
	<path fill="none" stroke="#FFFFFF" stroke-width="3" stroke-miterlimit="10" d="M3.581,61.819c9.292-2.543,9.651-11.94,9.651-11.94
		S27.32,69.243,66.335,72.904c27.094,2.541,39.053,0.353,50.94-3.661c21.058-7.112,43.376-16.418,46.239-19.364
		c0,0-1.722,8.02,14.174,10.211"/>
	<polygon fill="#123787" points="95.249,1.706 178.428,77.934 4.711,77.952 78.437,1.706 	"/>
	<linearGradient id="SVGID_1_" gradientUnits="userSpaceOnUse" x1="90.7764" y1="68.8027" x2="93.1828" y2="-0.1084">
		<stop  offset="0" style="stop-color:#F7F7F7"/>
		<stop  offset="0.2409" style="stop-color:#F7F7F7"/>
		<stop  offset="0.2727" style="stop-color:#F7F7F7"/>
		<stop  offset="0.4173" style="stop-color:#F4F4F5"/>
		<stop  offset="0.5198" style="stop-color:#EBECEF"/>
		<stop  offset="0.6094" style="stop-color:#DBDFE4"/>
		<stop  offset="0.6916" style="stop-color:#C5CBD5"/>
		<stop  offset="0.7687" style="stop-color:#A9B2C2"/>
		<stop  offset="0.8421" style="stop-color:#8593AA"/>
		<stop  offset="0.9125" style="stop-color:#5C6E8E"/>
		<stop  offset="0.9788" style="stop-color:#2D456E"/>
		<stop  offset="1" style="stop-color:#1C3663"/>
	</linearGradient>
	<polygon fill="url(#SVGID_1_)" points="96.279,0 177.29,65.789 4.474,65.789 77.995,0 	"/>
</g>
<g id="Layer_2_copy">
	<g>
		
			<text transform="matrix(0.872 0 0 1 19.9702 34.21)" fill="#123787" font-family="'OpenSans-Bold'" font-size="27.6555" letter-spacing="1.147">HIGH TECH</text>
		<text transform="matrix(0.7567 0 0 1 1.5337 64.8252)" fill="#123787" font-family="'OpenSans-Bold'" font-size="27.3087">WATERPROOFING</text>
		<line fill="none" stroke="#123787" stroke-width="2" stroke-miterlimit="10" x1="0" y1="36.367" x2="182.833" y2="36.367"/>
		
			<text transform="matrix(1.3378 0 0 1.25 10.1265 77.1318)" fill="#FFFFFF" font-family="'OpenSans-SemiboldItalic'" font-size="7.5806">COMFORT-CRAWL ENCAPSULATION</text>
	</g>
</g>
</svg>
